PathFileType	4	(X/Y/Z)	../Python\walking\Walking05\task.trc
DataRate	CameraRate	NumFrames	NumMarkers	Units	OrigDataRate	OrigDataStartFrame	OrigNumFrames
200.000000	200.000000	4	30	mm	200.000000	151	605
Frame#	Time	C7			RBAK			CLAV			STRN			T10			RASI			RPSI			LPSI			LASI			PE01			PE02			PE03			RTH1			RTH2			RTH3			RTB1			RTB2			RTB3			RHEE			RD5M			RTOE			LTH1			LTH2			LTH3			LTB1			LTB2			LTB3			LHEE			LTOE			LD5M			
		X1	Y1	Z1	X2	Y2	Z2	X3	Y3	Z3	X4	Y4	Z4	X5	Y5	Z5	X6	Y6	Z6	X7	Y7	Z7	X8	Y8	Z8	X9	Y9	Z9	X10	Y10	Z10	X11	Y11	Z11	X12	Y12	Z12	X13	Y13	Z13	X14	Y14	Z14	X15	Y15	Z15	X16	Y16	Z16	X17	Y17	Z17	X18	Y18	Z18	X19	Y19	Z19	X20	Y20	Z20	X21	Y21	Z21	X22	Y22	Z22	X23	Y23	Z23	X24	Y24	Z24	X25	Y25	Z25	X26	Y26	Z26	X27	Y27	Z27	X28	Y28	Z28	X29	Y29	Z29	X30	Y30	Z30	

152	0.755	-147.9472961425782	1498.61181640625	171.909896850586	-168.5714569091797	1419.541870117188	349.2988891601564	-33.51426696777345	1409.06787109375	187.5892791748047	25.29152107238771	1218.865234375	204.0106658935548	-200.3990020751954	1242.18798828125	191.8640441894532	4.050718784332277	988.1762695312505	343.0617980957032	-156.1103973388672	1042.931030273438	250.7932739257814	-155.6820678710938	1054.078979492188	150.9825897216797	26.46629333496095	1023.224853515625	68.67864990234378	-150.2208099365235	1095.760864257813	206.2832183837892	-160.0207824707032	1032.883056640625	225.9426879882814	-161.7013244628907	1038.3505859375	175.1161651611329	-64.40893554687503	725.445983886719	373.1346435546876	-123.5153503417969	710.5766601562502	360.9241638183595	-109.1146087646485	662.632019042969	353.4281005859376	-234.8130187988282	368.365447998047	325.7030334472657	-296.8348999023439	373.786346435547	326.0942687988282	-300.5209960937501	324.0052795410157	317.6954650878907	-549.8980102539065	250.8545684814454	243.4161376953126	-539.644470214844	92.08832550048831	313.6878967285157	-508.4851684570315	55.12859344482425	273.3997802734376	21.77289772033692	716.3965454101565	26.97686767578126	4.510092735290529	670.635681152344	38.447811126709	62.56395339965823	651.5638427734377	46.47358322143556	68.97196197509768	356.1526489257814	74.51969146728518	41.73618698120119	315.6297607421876	85.87332916259768	94.67458343505862	283.0115966796876	87.60684967041018	33.73916244506837	33.58066940307619	165.2005920410157	246.8011322021486	32.29343032836915	152.5763549804688	200.7534637451173	17.97713279724122	104.2028808593751	
153	0.76	-141.0030975341797	1499.539672851563	171.5457763671876	-161.6694793701172	1420.559814453125	348.9432678222657	-26.56034469604494	1410.031005859375	187.2832946777344	32.2407569885254	1219.809814453125	203.7387847900392	-193.4721221923829	1243.133056640625	191.549789428711	10.87922859191895	988.8874511718755	342.4370727539064	-149.3142089843751	1043.430419921875	250.3977050781251	-149.002914428711	1054.837158203125	150.6352233886719	33.15561676025392	1024.30615234375	67.96435546875003	-143.4877166748047	1096.374633789063	206.0001068115236	-153.2806091308594	1033.458129882813	225.5507202148439	-155.0015716552735	1039.024047851563	174.7309112548829	-54.65149688720706	725.4966430664065	372.2862854003907	-113.4623947143555	709.642272949219	359.815887451172	-98.22768402099615	661.923522949219	352.5234375000001	-220.9524078369142	368.1353454589845	325.4298400878907	-282.8952636718751	374.2024841308595	326.3582153320314	-287.1732177734376	324.5572509765626	317.4368591308595	-537.6505126953127	254.9036254882814	242.9505615234376	-529.4591064453127	96.54975891113287	314.5704345703126	-498.9335021972659	57.97993087768558	274.9869384765626	26.18148422241212	716.6722412109377	26.52610015869142	8.332355499267582	671.097351074219	38.05961990356447	66.09196472167972	651.3005371093752	46.12882614135744	69.8588562011719	355.9752502441407	74.38899993896487	42.57108688354494	315.6456909179689	86.19744110107425	95.32144927978518	282.7077636718751	87.26496124267581	33.73728942871095	33.62900924682619	165.3615112304688	247.0023803710939	32.13542556762697	152.4917449951172	200.7157745361329	17.86342811584473	104.0897293090821	
154	0.765	-134.0956268310547	1500.484008789063	171.200180053711	-154.827865600586	1421.5751953125	348.5944824218751	-19.6566505432129	1410.997680664063	186.9955596923829	39.11757278442384	1220.751586914063	203.4703674316407	-186.6130371093751	1244.097778320313	191.2115783691407	17.60791969299317	989.686157226563	341.8594055175782	-142.5823059082032	1043.9814453125	249.9335784912111	-142.3647613525391	1055.609741210938	150.2147827148438	39.80679321289064	1025.302978515625	67.28416442871097	-136.8012695312501	1097.022827148438	205.6375274658204	-146.6013183593751	1034.076782226563	225.0989837646486	-148.3575592041016	1039.724975585938	174.2841186523438	-45.01171493530275	725.7086181640627	371.483856201172	-103.5023422241212	708.878356933594	358.7048339843751	-87.43634033203128	661.4049072265627	351.619354248047	-206.9945831298829	368.0502014160157	325.121307373047	-268.8586425781251	374.7113342285157	326.5477600097657	-273.6810607910157	325.1981811523439	317.1271057128907	-525.2708740234377	258.6077880859376	242.2873992919923	-518.5681762695315	100.8680572509766	315.505584716797	-488.4907531738284	60.83735656738284	276.6864013671876	30.26595497131349	716.9204711914065	26.13502120971681	11.83478832244873	671.541687011719	37.76824188232423	69.30297851562503	651.0205688476565	45.77850341796876	70.59827423095706	355.8039550781251	74.24269104003909	43.2821731567383	315.6596679687501	86.51485443115237	95.8549728393555	282.418914794922	86.89688873291018	33.73506546020509	33.68172836303712	165.5148620605469	247.1827697753907	31.97716522216798	152.4211578369141	200.6855468750001	17.75064849853516	103.9895095825196	
155	0.77	-127.2254257202149	1501.4423828125	170.8721771240235	-148.0469055175782	1422.585083007813	348.2507324218751	-12.80307960510255	1411.966552734375	186.724838256836	45.9240188598633	1221.690673828125	203.2035064697267	-179.8193054199219	1245.079223632813	190.8485717773438	24.24527168273927	990.5684204101567	341.3248901367189	-135.9097442626954	1044.58642578125	249.4079895019532	-135.7655181884766	1056.400390625	149.7277832031251	46.41769790649415	1026.222045898438	66.638542175293	-130.1586608886719	1097.708251953125	205.2021942138673	-139.9782257080079	1034.741088867188	224.593475341797	-141.7659454345704	1040.4560546875	173.7818298339844	-35.48979949951173	726.0776367187502	370.7288208007814	-93.63591766357425	708.2857055664065	357.5956115722657	-76.74626922607425	661.075134277344	350.7189941406251	-192.9602203369142	368.1214599609376	324.7844238281251	-254.747772216797	375.320281982422	326.6553649902345	-260.0625305175782	325.9310302734376	316.7751464843751	-512.7749023437502	261.9454650878907	241.4560546875001	-506.9736328125002	104.9985809326172	316.4862670898439	-477.1619873046877	63.66499710083011	278.4764099121095	34.07886886596681	717.1633300781252	25.7925319671631	15.08184051513673	671.986999511719	37.5525588989258	72.26856231689456	650.7588500976565	45.41642379760744	71.24902343750003	355.6517639160157	74.07792663574222	43.91706466674806	315.6832885742189	86.80152130126956	96.32268524169928	282.1571044921876	86.51554107666018	33.73287200927736	33.7385940551758	165.6587829589844	247.3436737060548	31.82246589660646	152.3655395507813	200.6623687744142	17.64306068420411	103.9001693725587	
